<?xml version="1.0" standalone="no"?>
<!DOCTYPE svg PUBLIC "-//W3C//DTD SVG 20010904//EN"
 "http://www.w3.org/TR/2001/REC-SVG-20010904/DTD/svg10.dtd">
<svg version="1.0" xmlns="http://www.w3.org/2000/svg"
 width="960.000000pt" height="960.000000pt" viewBox="0 0 960.000000 960.000000"
 preserveAspectRatio="xMidYMid meet">

<g transform="translate(0.000000,960.000000) scale(0.100000,-0.100000)"
fill="#000000" stroke="none">
<path d="M0 4800 l0 -4800 4800 0 4800 0 0 4800 0 4800 -4800 0 -4800 0 0
-4800z m3612 2148 c-7 -348 23 -525 123 -731 74 -154 137 -246 298 -437 58
-69 148 -176 200 -238 108 -128 208 -273 260 -378 111 -221 162 -510 155 -884
l-3 -175 -75 -3 -75 -3 3 217 c5 306 -19 485 -95 713 -88 266 -215 454 -522
774 -305 319 -406 460 -488 677 -50 132 -64 229 -70 473 l-6 227 150 0 150 0
-5 -232z m178 168 c0 -201 40 -466 102 -676 112 -381 256 -621 584 -974 168
-181 220 -242 269 -316 109 -167 193 -386 252 -660 16 -78 53 -330 53 -365 l0
-25 -182 2 -182 3 3 155 c6 384 -50 693 -168 927 -63 126 -181 294 -305 434
-96 109 -266 318 -324 397 -34 48 -87 137 -117 197 -97 195 -125 343 -125 661
0 116 3 232 6 258 l7 46 63 0 64 0 0 -64z m215 -23 c26 -367 79 -537 228 -743
63 -86 259 -277 397 -385 297 -235 362 -289 447 -379 149 -156 245 -318 347
-589 126 -332 201 -613 221 -824 l7 -73 -280 0 -280 0 -6 23 c-3 12 -6 38 -6
57 0 43 -45 311 -66 400 -34 140 -88 300 -138 405 -87 184 -125 236 -342 471
-254 276 -368 431 -469 639 -140 285 -219 604 -232 928 l-6 157 86 0 85 0 7
-87z m95 -24 c0 -216 50 -443 129 -584 68 -122 182 -233 336 -326 62 -38 397
-209 409 -209 15 0 249 -139 300 -178 288 -219 512 -600 619 -1052 44 -184
111 -603 99 -615 -3 -3 -72 -5 -153 -5 l-148 0 -6 48 c-30 235 -72 414 -156
666 -98 293 -177 469 -280 623 -109 161 -210 258 -534 509 -193 150 -380 327
-462 438 -134 181 -184 351 -209 699 l-6 97 31 0 31 0 0 -111z m232 11 c19
-259 98 -429 261 -564 125 -104 304 -188 662 -311 132 -45 268 -96 301 -113
278 -140 478 -444 563 -857 50 -242 71 -503 71 -873 l0 -263 -77 3 -78 3 -18
130 c-60 448 -147 761 -283 1024 -89 172 -180 299 -303 422 -139 138 -242 205
-531 346 -129 63 -280 142 -335 176 -112 69 -220 170 -280 262 -48 72 -101
211 -122 314 -14 72 -33 388 -23 397 2 3 45 3 95 2 l90 -3 7 -95z m470 -6
c366 -254 584 -342 900 -364 295 -21 383 -29 436 -41 l52 -12 0 -255 0 -255
-31 46 c-47 71 -134 142 -234 192 -143 71 -262 105 -566 160 -375 67 -562 142
-703 280 -88 87 -133 178 -151 308 l-6 47 75 0 75 0 153 -106z m649 55 c73
-63 195 -137 294 -178 78 -33 249 -79 373 -101 l72 -13 0 -69 c0 -37 -1 -68
-2 -68 -2 0 -41 7 -88 15 -47 9 -173 20 -280 25 -274 14 -386 37 -571 116
-125 53 -316 168 -493 296 l-39 28 338 0 337 0 59 -51z m88 32 c12 -22 140
-120 204 -157 54 -31 43 -31 -27 0 -63 28 -185 105 -234 147 l-33 29 40 0 c29
0 43 -5 50 -19z m527 -3 c11 -37 61 -94 94 -108 29 -12 30 -14 30 -85 l0 -73
-72 14 c-148 28 -302 91 -421 173 -41 28 -84 62 -97 76 l-23 25 241 0 241 0 7
-22z m124 -28 c0 -27 -4 -50 -9 -50 -11 0 -81 77 -81 90 0 6 20 10 45 10 l45
0 0 -50z m-2805 -1211 c158 -100 367 -293 482 -444 107 -142 247 -373 268
-444 7 -22 5 -23 -27 -16 -128 28 -249 149 -378 380 -114 205 -220 311 -354
356 l-51 18 -3 90 c-1 50 1 91 6 91 4 0 30 -14 57 -31z m20 -217 c106 -52 193
-153 321 -372 126 -216 257 -334 396 -358 42 -7 44 -9 69 -73 31 -76 70 -211
93 -319 28 -133 52 -399 41 -450 -6 -29 -10 -31 -43 -28 l-36 3 -16 75 c-46
209 -152 452 -317 725 -162 270 -397 572 -528 677 -63 52 -65 54 -65 101 0 47
0 47 28 41 15 -4 41 -13 57 -22z m16 -204 c342 -346 715 -987 774 -1331 3 -21
9 -45 12 -53 4 -12 -33 -14 -252 -14 l-257 0 9 78 c13 119 7 337 -11 440 -41
226 -126 418 -323 719 -53 82 -53 82 -53 162 0 45 4 81 9 81 6 0 47 -37 92
-82z m-43 -235 c136 -214 224 -397 258 -542 43 -182 56 -391 33 -546 l-11 -75
-83 0 -82 0 -12 93 c-19 142 -40 212 -103 336 l-58 115 0 348 c0 191 2 348 4
348 2 0 26 -35 54 -77z m-13 -785 c41 -87 73 -205 82 -306 l6 -73 -64 3 -64 3
-3 223 c-1 122 0 222 3 222 3 0 21 -33 40 -72z m-76 -1514 c91 -22 174 -69
246 -136 l60 -56 -77 -77 -77 -76 -25 48 c-56 111 -163 183 -274 183 -166 0
-253 -76 -209 -183 20 -47 63 -68 215 -106 298 -76 417 -150 453 -286 16 -56
4 -157 -24 -218 -40 -87 -108 -139 -222 -173 -86 -25 -316 -26 -400 0 -87 26
-166 71 -232 132 l-58 53 76 76 76 77 26 -45 c33 -56 108 -124 173 -157 42
-21 62 -25 144 -25 73 0 104 4 134 19 94 47 101 160 13 215 -18 11 -92 36
-163 55 -282 75 -371 123 -429 228 -25 45 -30 64 -30 123 1 174 99 291 279
330 86 19 246 18 325 -1z m3295 -17 c77 -29 153 -77 208 -134 l38 -38 -70 -73
c-38 -39 -73 -72 -78 -72 -5 0 -17 18 -27 40 -23 50 -111 135 -167 160 -85 39
-255 18 -297 -36 -50 -64 -33 -147 38 -183 21 -11 99 -36 173 -55 198 -51 289
-90 359 -153 66 -60 84 -104 83 -203 0 -109 -26 -172 -96 -235 -58 -52 -126
-79 -232 -94 -226 -32 -415 17 -551 143 l-60 55 77 77 76 77 20 -40 c26 -50
117 -134 179 -164 40 -20 63 -24 143 -24 83 0 101 3 140 25 78 44 92 132 30
190 -29 27 -66 40 -260 94 -186 52 -287 104 -339 176 -77 107 -61 285 35 384
81 83 198 117 384 112 104 -3 137 -8 194 -29z m-2024 -57 l0 -70 -235 0 -235
0 0 -165 0 -165 183 -2 182 -3 0 -65 0 -65 -182 -3 -183 -2 0 -165 0 -165 235
0 235 0 0 -70 0 -70 -385 0 -385 0 0 533 c0 294 3 537 7 540 3 4 177 7 385 7
l378 0 0 -70z m700 -297 l325 -367 3 368 2 367 68 -3 67 -3 0 -535 0 -535 -95
-2 -95 -3 -126 143 c-69 78 -216 243 -325 367 l-199 224 -3 -367 -2 -367 -65
0 -65 0 0 540 0 540 93 0 92 0 325 -367z m-1293 -1050 c3 -8 -14 -13 -54 -15
l-58 -3 0 -39 c0 -39 0 -40 39 -40 55 -1 59 -24 4 -28 -36 -3 -43 -6 -41 -23
2 -11 1 -35 -2 -52 -5 -29 -10 -33 -35 -33 l-30 0 0 118 c0 65 3 122 7 126 12
12 166 2 170 -11z m103 -95 l0 -108 55 0 c42 0 55 -3 55 -15 0 -12 -16 -15
-87 -15 l-88 0 3 124 3 125 30 -1 29 -1 0 -109z m348 92 c60 -37 77 -122 37
-184 -22 -34 -94 -60 -139 -52 -48 9 -93 50 -107 95 -10 32 -8 45 8 83 33 74
129 102 201 58z m298 4 c43 -21 64 -59 64 -120 0 -39 -5 -51 -33 -79 -57 -57
-165 -54 -210 6 -24 33 -32 106 -15 139 33 63 123 87 194 54z m237 9 c53 -6
87 -32 87 -69 0 -26 -36 -74 -55 -74 -28 0 -23 -19 17 -59 l41 -42 -44 3 c-40
3 -45 6 -64 46 -19 40 -39 51 -41 21 0 -8 -2 -26 -2 -41 -2 -24 -6 -28 -32
-28 l-30 0 0 124 0 124 38 0 c20 0 59 -2 85 -5z m197 -120 l0 -123 -30 0 -30
0 0 123 0 123 30 -1 30 0 0 -122z m179 40 l81 -88 0 83 c0 66 3 82 15 82 13 0
15 -20 15 -120 0 -119 0 -120 -23 -120 -17 0 -43 23 -92 78 -37 42 -72 79 -76
80 -5 2 -9 -33 -9 -77 0 -65 -3 -81 -15 -81 -12 0 -15 20 -15 118 0 65 3 122
7 125 16 16 36 2 112 -80z m351 70 c26 -18 40 -33 40 -45 0 -15 -20 -8 -44 17
-21 21 -29 23 -57 15 -38 -11 -42 -15 -59 -57 -25 -65 18 -149 72 -141 20 3
23 9 26 51 3 45 5 47 33 47 29 0 29 0 29 -61 0 -51 -3 -60 -15 -55 -9 3 -35 1
-59 -6 -37 -10 -48 -9 -81 8 -21 10 -47 31 -57 45 -24 31 -26 95 -5 136 30 56
126 81 177 46z"/>
<path d="M4297 1515 c-34 -33 -34 -130 0 -167 21 -24 65 -23 88 2 23 26 31
115 13 150 -17 31 -77 40 -101 15z"/>
<path d="M4623 1529 c-30 -11 -43 -40 -43 -94 0 -72 22 -105 72 -105 40 0 63
40 62 107 -2 74 -38 112 -91 92z"/>
<path d="M4890 1491 c0 -51 8 -71 30 -71 39 0 66 70 38 98 -7 7 -25 12 -40 12
-26 0 -28 -3 -28 -39z"/>
</g>
</svg>
