<?xml version="1.0" standalone="no"?>
<!DOCTYPE svg PUBLIC "-//W3C//DTD SVG 20010904//EN"
 "http://www.w3.org/TR/2001/REC-SVG-20010904/DTD/svg10.dtd">
<svg version="1.0" xmlns="http://www.w3.org/2000/svg"
 width="100.000000pt" height="100.000000pt" viewBox="0 0 100.000000 100.000000"
 preserveAspectRatio="xMidYMid meet">
<metadata>
Created by potrace 1.10, written by Peter Selinger 2001-2011
</metadata>
<g transform="translate(0.000000,100.000000) scale(0.100000,-0.100000)"
fill="#000000" stroke="none">
<path d="M332 678 c-281 -119 -283 -121 -277 -147 9 -34 51 -90 79 -102 11 -6
33 -30 49 -54 27 -43 77 -75 117 -75 12 0 74 23 138 50 64 28 122 50 129 50 9
0 13 -14 13 -43 0 -69 16 -77 148 -77 l112 0 0 -29 c0 -36 23 -61 56 -61 l24
0 0 135 0 135 -24 0 c-33 0 -56 -25 -56 -61 l0 -29 -85 0 c-66 0 -85 3 -85 14
0 8 7 16 15 20 8 3 15 16 15 29 0 16 12 31 37 48 46 29 63 61 63 117 0 98 -80
202 -155 202 -16 -1 -157 -55 -313 -122z m391 52 c20 -21 37 -43 37 -47 0 -4
-86 -43 -191 -86 l-191 -77 -26 19 c-35 24 -95 41 -152 41 l-45 1 70 28 c39
16 144 61 235 100 189 81 205 83 263 21z m52 -101 c9 -42 -2 -93 -24 -113 -15
-13 -181 -89 -360 -163 -11 -5 -11 -2 -1 17 8 15 11 45 7 81 l-5 57 177 75
c97 41 181 75 188 76 6 1 14 -13 18 -30z m-630 -124 c0 -30 -3 -55 -7 -55 -12
0 -58 66 -58 83 0 9 11 17 28 20 15 2 29 5 32 6 3 0 5 -24 5 -54z m59 25 c-15
-71 39 -170 92 -170 45 0 59 77 25 143 -22 43 -14 47 26 13 24 -21 27 -31 28
-86 0 -56 -3 -64 -29 -87 -36 -31 -76 -26 -119 15 -68 63 -93 202 -36 202 15
0 17 -5 13 -30z m81 -3 c37 -37 54 -102 35 -136 -15 -29 -27 -26 -65 12 -37
37 -54 102 -35 136 15 29 27 26 65 -12z m395 -92 c0 -11 -10 -15 -37 -14 l-38
1 30 13 c39 18 45 18 45 0z m220 -110 c0 -63 -4 -115 -8 -115 -23 0 -32 30
-32 111 0 96 5 119 26 119 11 0 14 -23 14 -115z m-248 53 c3 -22 8 -23 96 -26
90 -3 92 -3 92 -27 l0 -25 -108 0 c-71 0 -112 4 -120 12 -7 7 -12 29 -12 50 0
34 3 38 24 38 18 0 25 -6 28 -22z"/>
<path d="M633 502 c-46 -20 -83 -39 -83 -43 0 -8 174 62 187 74 15 15 -27 3
-104 -31z"/>
</g>
</svg>
