<?xml version="1.0" standalone="no"?>
<!DOCTYPE svg PUBLIC "-//W3C//DTD SVG 20010904//EN"
 "http://www.w3.org/TR/2001/REC-SVG-20010904/DTD/svg10.dtd">
<svg version="1.0" xmlns="http://www.w3.org/2000/svg"
 width="64.000000pt" height="64.000000pt" viewBox="0 0 64.000000 64.000000"
 preserveAspectRatio="xMidYMid meet">
<metadata>
Created by potrace 1.10, written by Peter Selinger 2001-2011
</metadata>
<g transform="translate(0.000000,64.000000) scale(0.100000,-0.100000)"
fill="#000000" stroke="none">
<path d="M195 501 c-27 -4 -55 -10 -61 -13 -6 -4 -24 -39 -40 -78 -28 -68 -30
-71 -57 -66 -23 5 -28 3 -25 -12 4 -23 84 -31 308 -31 217 0 305 8 305 29 0
10 -8 14 -25 12 -22 -2 -28 5 -50 57 -14 34 -31 68 -38 78 -20 28 -187 40
-317 24z m282 -37 c7 -2 24 -29 38 -60 20 -45 23 -59 13 -66 -17 -10 -399 -10
-416 1 -10 6 -7 20 15 67 l28 59 70 6 c68 5 227 1 252 -7z"/>
<path d="M50 272 c-30 -9 -40 -36 -40 -109 0 -56 4 -75 15 -79 10 -4 14 -17
12 -38 l-2 -31 65 0 c65 0 65 0 65 28 l0 28 155 0 155 0 0 -28 c0 -28 0 -28
65 -28 l65 0 -2 31 c-2 21 2 34 12 38 11 4 15 23 15 78 0 81 -5 93 -40 106
-54 21 -102 -34 -77 -88 10 -20 21 -26 55 -28 43 -3 55 -19 29 -40 -9 -8 -104
-11 -284 -11 -236 0 -272 2 -277 15 -11 28 -6 34 23 34 16 0 37 3 46 6 23 9
36 49 25 78 -9 25 -54 46 -80 38z m45 -62 c0 -30 -35 -40 -55 -15 -10 12 -10
18 0 30 20 25 55 15 55 -15z m505 15 c10 -12 10 -18 0 -30 -27 -32 -71 -8 -56
30 3 8 14 15 24 15 11 0 25 -7 32 -15z m-465 -170 c0 -15 -8 -21 -29 -23 -33
-4 -51 10 -42 33 9 25 71 16 71 -10z m440 0 c0 -15 -8 -21 -29 -23 -33 -4 -51
10 -42 33 9 25 71 16 71 -10z"/>
<path d="M195 179 c-15 -23 16 -30 131 -27 98 2 119 6 119 18 0 12 -21 15
-122 18 -81 2 -124 -1 -128 -9z"/>
</g>
</svg>
