<?xml version="1.0" standalone="no"?>
<!DOCTYPE svg PUBLIC "-//W3C//DTD SVG 20010904//EN"
 "http://www.w3.org/TR/2001/REC-SVG-20010904/DTD/svg10.dtd">
<svg version="1.0" xmlns="http://www.w3.org/2000/svg"
 width="50.000000pt" height="50.000000pt" viewBox="0 0 50.000000 50.000000"
 preserveAspectRatio="xMidYMid meet">
<metadata>
Created by potrace 1.10, written by Peter Selinger 2001-2011
</metadata>
<g transform="translate(0.000000,50.000000) scale(0.100000,-0.100000)"
fill="#000000" stroke="none">
<path d="M95 407 c-125 -71 -125 -243 0 -314 35 -20 55 -23 150 -23 95 0 117
3 155 23 132 66 132 248 0 315 -38 19 -60 22 -155 22 -95 0 -115 -3 -150 -23z
m175 -27 c35 -25 70 -90 70 -130 0 -40 -35 -105 -69 -129 -95 -68 -235 -5
-248 113 -8 71 44 151 112 169 39 11 103 -1 135 -23z m70 1 c30 -21 70 -95 70
-131 0 -36 -40 -110 -70 -131 -14 -10 -36 -20 -50 -24 l-25 -6 28 22 c38 29
67 90 67 139 0 49 -29 110 -67 139 l-28 22 25 -6 c14 -4 36 -14 50 -24z m73
-3 c34 -24 67 -87 67 -128 0 -64 -57 -137 -120 -154 -25 -7 -25 -7 3 15 38 29
67 90 67 139 0 49 -29 110 -67 139 -28 22 -28 22 -3 15 14 -4 37 -15 53 -26z"/>
<path d="M148 329 c-16 -16 -28 -34 -28 -39 0 -17 39 -50 59 -50 24 0 43 -23
35 -44 -9 -22 -51 -20 -66 4 -15 23 -28 26 -28 7 0 -8 14 -26 30 -41 25 -22
33 -25 45 -14 8 7 21 19 30 26 33 28 8 73 -48 86 -22 5 -28 12 -25 29 4 27 37
35 54 12 7 -9 18 -15 25 -13 8 3 0 16 -19 36 -17 18 -33 32 -34 31 -2 0 -15
-14 -30 -30z"/>
</g>
</svg>
