<?xml version="1.0" standalone="no"?>
<!DOCTYPE svg PUBLIC "-//W3C//DTD SVG 20010904//EN"
 "http://www.w3.org/TR/2001/REC-SVG-20010904/DTD/svg10.dtd">
<svg version="1.0" xmlns="http://www.w3.org/2000/svg"
 width="50.000000pt" height="50.000000pt" viewBox="0 0 50.000000 50.000000"
 preserveAspectRatio="xMidYMid meet">
<metadata>
Created by potrace 1.10, written by Peter Selinger 2001-2011
</metadata>
<g transform="translate(0.000000,50.000000) scale(0.100000,-0.100000)"
fill="#000000" stroke="none">
<path d="M36 394 c-23 -23 -23 -265 0 -288 23 -24 405 -24 428 0 23 23 23 265
0 288 -23 24 -405 24 -428 0z m412 -16 c35 -35 17 -38 -198 -38 -215 0 -233 3
-198 38 17 17 379 17 396 0z m12 -166 c0 -47 -5 -83 -12 -90 -17 -17 -379 -17
-396 0 -7 7 -12 43 -12 90 l0 78 210 0 210 0 0 -78z"/>
<path d="M90 250 c0 -6 33 -10 80 -10 47 0 80 4 80 10 0 6 -33 10 -80 10 -47
0 -80 -4 -80 -10z"/>
</g>
</svg>
