<?xml version="1.0" standalone="no"?>
<!DOCTYPE svg PUBLIC "-//W3C//DTD SVG 20010904//EN"
 "http://www.w3.org/TR/2001/REC-SVG-20010904/DTD/svg10.dtd">
<svg version="1.0" xmlns="http://www.w3.org/2000/svg"
 width="50.000000pt" height="50.000000pt" viewBox="0 0 50.000000 50.000000"
 preserveAspectRatio="xMidYMid meet">
<metadata>
Created by potrace 1.10, written by Peter Selinger 2001-2011
</metadata>
<g transform="translate(0.000000,50.000000) scale(0.100000,-0.100000)"
fill="#000000" stroke="none">
<path d="M100 405 l0 -75 150 0 150 0 0 75 0 75 -150 0 -150 0 0 -75z m116 29
l-38 -26 -26 26 -27 26 65 0 65 0 -39 -26z m107 -29 c-52 -60 -86 -70 -117
-36 -16 17 -14 20 30 55 38 29 56 36 91 36 l44 0 -48 -55z m-154 -17 l35 -38
-42 0 -42 0 0 47 c0 26 3 43 8 38 4 -6 23 -27 41 -47z m211 7 c0 -45 0 -45
-35 -45 -19 0 -35 3 -35 6 0 5 63 83 68 84 1 0 2 -20 2 -45z"/>
<path d="M62 267 c-12 -13 -22 -31 -22 -40 0 -9 -4 -17 -10 -17 -5 0 -15 -10
-21 -22 -10 -18 -7 -30 17 -75 16 -29 32 -53 36 -53 3 0 4 -9 1 -20 -6 -24 24
-29 33 -5 5 12 32 15 154 15 122 0 149 -3 154 -15 9 -24 39 -19 33 5 -3 11 -2
20 1 20 4 0 20 24 36 53 24 45 27 57 17 75 -6 12 -16 22 -21 22 -6 0 -10 8
-10 18 0 10 -10 28 -23 40 -22 21 -33 22 -188 22 -160 0 -166 -1 -187 -23z
m364 -18 c15 -16 16 -23 6 -37 -7 -9 -16 -27 -21 -39 -9 -19 -14 -20 -48 -12
-21 5 -72 9 -113 9 -41 0 -92 -4 -113 -9 -34 -8 -39 -7 -48 12 -5 12 -14 30
-21 39 -10 14 -9 21 6 37 18 20 30 21 176 21 146 0 158 -1 176 -21z m-353 -89
c11 -30 13 -30 57 -23 58 10 182 10 240 0 44 -7 46 -7 57 23 6 16 19 30 27 30
23 0 33 -30 15 -44 -8 -6 -21 -26 -28 -43 l-13 -33 -178 0 -178 0 -13 33 c-7
17 -20 37 -28 43 -18 14 -8 44 15 44 8 0 21 -14 27 -30z"/>
</g>
</svg>
