<?xml version="1.0" standalone="no"?>
<!DOCTYPE svg PUBLIC "-//W3C//DTD SVG 20010904//EN"
 "http://www.w3.org/TR/2001/REC-SVG-20010904/DTD/svg10.dtd">
<svg version="1.0" xmlns="http://www.w3.org/2000/svg"
 width="64.000000pt" height="64.000000pt" viewBox="0 0 64.000000 64.000000"
 preserveAspectRatio="xMidYMid meet">
<metadata>
Created by potrace 1.10, written by Peter Selinger 2001-2011
</metadata>
<g transform="translate(0.000000,64.000000) scale(0.100000,-0.100000)"
fill="#000000" stroke="none">
<path d="M96 614 c-14 -13 -16 -54 -16 -294 0 -240 2 -281 16 -294 23 -24 425
-24 448 0 14 13 16 54 16 294 0 240 -2 281 -16 294 -23 24 -425 24 -448 0z
m434 -49 l0 -45 -213 0 -212 0 3 45 4 45 209 0 209 0 0 -45z m6 -81 c-3 -9 -6
-114 -6 -235 l0 -219 -210 0 -210 0 0 123 c0 67 -1 173 -3 235 l-2 112 219 0
c195 0 217 -2 212 -16z"/>
<path d="M395 572 c-13 -14 -2 -22 30 -22 19 0 35 4 35 9 0 10 -57 21 -65 13z"/>
<path d="M242 429 c-25 -13 -55 -39 -69 -60 -99 -150 61 -337 222 -259 134 65
135 254 3 319 -56 27 -102 27 -156 0z m148 -21 c55 -29 84 -75 84 -138 0 -62
-28 -108 -84 -138 -104 -55 -223 18 -224 139 0 27 8 59 20 80 21 37 92 79 134
79 14 0 46 -10 70 -22z"/>
<path d="M261 382 c-38 -21 -71 -73 -71 -112 0 -62 68 -130 130 -130 61 0 130
68 130 128 0 37 -26 89 -54 107 -40 26 -96 29 -135 7z m109 -17 c32 -16 60
-61 60 -95 0 -34 -45 -26 -76 15 -24 32 -31 35 -75 35 -57 0 -62 12 -16 40 38
24 68 25 107 5z m-25 -101 c18 -19 42 -34 54 -34 19 0 20 -3 11 -20 -13 -23
-60 -50 -90 -50 -54 0 -110 57 -110 113 0 32 2 33 56 28 38 -3 54 -10 79 -37z"/>
</g>
</svg>
