<?xml version="1.0" standalone="no"?>
<!DOCTYPE svg PUBLIC "-//W3C//DTD SVG 20010904//EN"
 "http://www.w3.org/TR/2001/REC-SVG-20010904/DTD/svg10.dtd">
<svg version="1.0" xmlns="http://www.w3.org/2000/svg"
 width="64.000000pt" height="64.000000pt" viewBox="0 0 64.000000 64.000000"
 preserveAspectRatio="xMidYMid meet">
<metadata>
Created by potrace 1.10, written by Peter Selinger 2001-2011
</metadata>
<g transform="translate(0.000000,64.000000) scale(0.100000,-0.100000)"
fill="#000000" stroke="none">
<path d="M332 608 c-6 -6 -12 -20 -12 -29 0 -10 -4 -21 -10 -24 -5 -3 -10 -16
-10 -28 -1 -14 -13 -30 -33 -42 -17 -11 -41 -36 -54 -55 -12 -19 -26 -38 -30
-42 -5 -4 -25 -22 -46 -40 -32 -28 -40 -42 -44 -79 -6 -54 13 -98 57 -131 24
-17 30 -29 30 -58 0 -20 5 -41 12 -48 17 -17 349 -17 366 0 8 8 12 60 12 170
l0 158 -35 70 c-19 37 -42 74 -52 82 -10 7 -24 27 -32 43 -7 17 -17 37 -21 45
-9 19 -81 25 -98 8z m86 -30 c3 -15 -4 -18 -37 -18 -35 0 -41 3 -41 21 0 17 5
20 37 17 27 -2 39 -8 41 -20z m22 -48 c0 -5 -20 -10 -44 -10 -24 0 -51 -3 -60
-6 -11 -4 -16 -1 -16 10 0 13 12 16 60 16 33 0 60 -4 60 -10z m72 -105 l38
-70 -3 -155 -2 -155 -170 0 -170 0 -3 33 c-3 30 -1 32 30 32 69 0 138 70 138
140 0 68 -69 140 -134 140 l-29 0 25 33 c40 52 101 78 178 75 l65 -3 37 -70z
m-201 -91 c71 -68 30 -189 -68 -200 -47 -6 -80 11 -111 56 -40 58 -14 142 53
171 35 15 95 3 126 -27z"/>
<path d="M417 423 c-13 -12 -7 -109 9 -162 15 -52 15 -52 52 -49 l37 3 3 68
c4 85 -25 147 -68 147 -15 0 -30 -3 -33 -7z m66 -48 c10 -20 17 -60 17 -91 0
-51 -2 -55 -21 -52 -26 4 -49 68 -49 136 0 34 3 42 18 42 11 0 25 -14 35 -35z"/>
<path d="M322 114 c-11 -12 -10 -17 2 -30 15 -14 17 -14 32 0 14 14 14 18 0
31 -18 18 -18 18 -34 -1z"/>
<path d="M161 296 c-19 -20 -21 -28 -12 -45 7 -12 16 -21 21 -21 6 0 10 -11
10 -25 0 -23 3 -25 50 -25 47 0 50 2 50 25 0 14 4 25 10 25 5 0 14 10 21 21 9
18 7 25 -15 48 -23 23 -29 24 -47 13 -15 -10 -24 -11 -32 -3 -17 17 -31 13
-56 -13z m88 -9 c14 9 21 9 30 0 16 -16 14 -37 -4 -31 -11 5 -15 -1 -15 -25 0
-28 -3 -31 -30 -31 -27 0 -30 3 -30 31 0 24 -4 30 -15 25 -18 -6 -20 15 -4 31
9 9 16 9 30 0 15 -9 23 -9 38 0z"/>
<path d="M122 464 c-11 -12 -10 -17 2 -30 15 -14 17 -14 32 0 14 14 14 18 0
31 -18 18 -18 18 -34 -1z"/>
</g>
</svg>
