<?xml version="1.0" standalone="no"?>
<!DOCTYPE svg PUBLIC "-//W3C//DTD SVG 20010904//EN"
 "http://www.w3.org/TR/2001/REC-SVG-20010904/DTD/svg10.dtd">
<svg version="1.0" xmlns="http://www.w3.org/2000/svg"
 width="50.000000pt" height="50.000000pt" viewBox="0 0 50.000000 50.000000"
 preserveAspectRatio="xMidYMid meet">
<metadata>
Created by potrace 1.10, written by Peter Selinger 2001-2011
</metadata>
<g transform="translate(0.000000,50.000000) scale(0.100000,-0.100000)"
fill="#000000" stroke="none">
<path d="M7 414 c-9 -9 -9 -276 -1 -298 3 -9 17 -16 31 -16 15 0 33 -10 45
-25 13 -16 29 -25 48 -25 20 0 35 8 46 25 15 23 23 25 86 25 63 0 72 -3 90
-25 13 -16 29 -25 48 -25 19 0 35 9 48 25 11 14 24 25 30 25 15 0 22 26 22 80
0 61 -10 88 -50 134 -29 33 -37 36 -85 36 -53 0 -54 0 -57 33 l-3 32 -146 3
c-80 1 -148 -1 -152 -4z m283 -154 l0 -140 -46 0 c-37 0 -52 5 -70 25 -13 14
-32 25 -44 25 -11 0 -32 -11 -46 -25 -14 -14 -34 -25 -44 -25 -19 0 -20 8 -20
140 l0 140 135 0 135 0 0 -140z m72 13 l3 -58 58 -3 57 -3 0 -44 c0 -51 -10
-57 -34 -20 -11 17 -26 25 -46 25 -20 0 -35 -8 -46 -25 -9 -14 -23 -25 -30
-25 -11 0 -14 22 -14 105 0 105 0 105 25 105 22 0 24 -4 27 -57z m65 35 c11
-13 28 -35 38 -50 l17 -28 -51 0 -51 0 0 50 c0 56 14 64 47 28z m-267 -173
c26 -32 -13 -81 -47 -59 -10 6 -19 19 -21 28 -8 38 43 61 68 31z m270 0 c26
-32 -13 -81 -47 -59 -23 14 -28 41 -13 59 16 19 44 19 60 0z"/>
<path d="M101 366 c-87 -48 -50 -186 49 -186 51 0 100 49 100 99 0 75 -83 124
-149 87z m96 -26 c29 -27 37 -56 23 -90 -25 -61 -115 -61 -140 0 -31 74 60
144 117 90z"/>
<path d="M140 311 c0 -18 -8 -34 -22 -43 -12 -8 -17 -17 -11 -21 20 -13 53 23
53 59 0 19 -4 34 -10 34 -5 0 -10 -13 -10 -29z"/>
</g>
</svg>
