<?xml version="1.0" standalone="no"?>
<!DOCTYPE svg PUBLIC "-//W3C//DTD SVG 20010904//EN"
 "http://www.w3.org/TR/2001/REC-SVG-20010904/DTD/svg10.dtd">
<svg version="1.0" xmlns="http://www.w3.org/2000/svg"
 width="64.000000pt" height="64.000000pt" viewBox="0 0 64.000000 64.000000"
 preserveAspectRatio="xMidYMid meet">
<metadata>
Created by potrace 1.10, written by Peter Selinger 2001-2011
</metadata>
<g transform="translate(0.000000,64.000000) scale(0.100000,-0.100000)"
fill="#000000" stroke="none">
<path d="M275 533 c-81 -9 -178 -47 -235 -92 -22 -18 -23 -20 -7 -27 11 -4 25
0 35 9 10 9 44 29 77 44 55 26 70 28 175 28 105 0 120 -2 177 -29 70 -32 108
-67 99 -91 -10 -28 -35 -27 -83 3 -27 17 -68 36 -92 42 -182 48 -412 -59 -321
-150 26 -26 50 -25 110 5 105 53 298 9 235 -54 -13 -13 -20 -13 -52 -1 -71 25
-174 6 -190 -36 -10 -25 5 -27 41 -5 40 25 87 29 137 11 48 -17 84 -7 99 29
16 41 0 68 -58 94 -68 31 -147 28 -223 -8 -56 -27 -60 -28 -77 -12 -23 24 -8
46 54 77 42 21 63 25 144 25 97 0 129 -9 211 -62 54 -34 114 14 93 75 -11 33
-97 87 -169 106 -56 16 -135 24 -180 19z"/>
<path d="M292 130 c-49 -20 -48 -103 3 -116 61 -15 106 27 85 81 -7 19 -50 49
-63 44 -1 0 -12 -4 -25 -9z m53 -60 c0 -18 -6 -26 -23 -28 -24 -4 -38 18 -28
44 3 9 15 14 28 12 17 -2 23 -10 23 -28z"/>
</g>
</svg>
