<?xml version="1.0" encoding="UTF-8" standalone="no"?>
<!-- Generator: Adobe Illustrator 13.0.2, SVG Export Plug-In . SVG Version: 6.00 Build 14948)  -->

<svg
   xmlns:dc="http://purl.org/dc/elements/1.1/"
   xmlns:cc="http://creativecommons.org/ns#"
   xmlns:rdf="http://www.w3.org/1999/02/22-rdf-syntax-ns#"
   xmlns:svg="http://www.w3.org/2000/svg"
   xmlns="http://www.w3.org/2000/svg"
   xmlns:sodipodi="http://sodipodi.sourceforge.net/DTD/sodipodi-0.dtd"
   xmlns:inkscape="http://www.inkscape.org/namespaces/inkscape"
   version="1.1"
   id="Layer_1"
   x="0px"
   y="0px"
   width="1111.9139"
   height="1111.7791"
   viewBox="-0.258 -0.548 1111.914 1111.779"
   xml:space="preserve"
   inkscape:version="0.91 r13725"
   sodipodi:docname="Pictograms-nps-services-laundromat.svg"><metadata
     id="metadata25699"><rdf:RDF><cc:Work
         rdf:about=""><dc:format>image/svg+xml</dc:format><dc:type
           rdf:resource="http://purl.org/dc/dcmitype/StillImage" /><dc:title></dc:title><cc:license
           rdf:resource="http://creativecommons.org/publicdomain/zero/1.0/" /></cc:Work><cc:License
         rdf:about="http://creativecommons.org/publicdomain/zero/1.0/"><cc:permits
           rdf:resource="http://creativecommons.org/ns#Reproduction" /><cc:permits
           rdf:resource="http://creativecommons.org/ns#Distribution" /><cc:permits
           rdf:resource="http://creativecommons.org/ns#DerivativeWorks" /></cc:License></rdf:RDF></metadata><defs
     id="defs25697" /><sodipodi:namedview
     pagecolor="#ffffff"
     bordercolor="#666666"
     borderopacity="1"
     objecttolerance="10"
     gridtolerance="10"
     guidetolerance="10"
     inkscape:pageopacity="0"
     inkscape:pageshadow="2"
     inkscape:window-width="1916"
     inkscape:window-height="1035"
     id="namedview25695"
     showgrid="false"
     fit-margin-top="0"
     fit-margin-left="0"
     fit-margin-right="0"
     fit-margin-bottom="0"
     inkscape:zoom="0.47880281"
     inkscape:cx="555.5195"
     inkscape:cy="555.6955"
     inkscape:window-x="4"
     inkscape:window-y="1"
     inkscape:window-maximized="1"
     inkscape:current-layer="Layer_1" /><g
     id="g25683"
     transform="matrix(9,0,0,9,-1.878,6.094)"><path
       d="m 108.953,122.793 c 8.156,0 14.773,-6.594 14.773,-14.742 l 0,-94.039 c 0,-8.133 -6.617,-14.75 -14.773,-14.75 l -94.023,0 c -8.133,0 -14.75,6.617 -14.75,14.75 l 0,94.039 c 0,8.148 6.617,14.742 14.75,14.742 l 94.023,0 z"
       id="path25685"
       inkscape:connector-curvature="0" /><path
       d="M 14.93,1.77 C 8.18,1.77 2.688,7.262 2.688,14.012 l 0,94.039 c 0,6.758 5.492,12.25 12.242,12.25 l 94.023,0 c 6.766,0 12.258,-5.492 12.258,-12.25 l 0,-94.039 c 0,-6.75 -5.492,-12.242 -12.258,-12.242 l -94.023,0 z"
       id="path25687"
       inkscape:connector-curvature="0" /><path
       style="fill:#ffffff"
       d="m 93.523,16.082 c 1.734,0 3.125,1.398 3.125,3.102 l 0,10.633 -68.539,0 0,-10.61 c 0,-1.703 1.391,-3.094 3.102,-3.094 L 93.523,16.082 Z M 48.281,26.418 c 1.875,0 3.406,-1.555 3.406,-3.438 0,-1.875 -1.531,-3.414 -3.406,-3.414 -1.883,0 -3.406,1.539 -3.406,3.414 0,1.883 1.523,3.438 3.406,3.438 z m -10.039,0 c 1.906,0 3.406,-1.555 3.406,-3.438 0,-1.875 -1.5,-3.414 -3.406,-3.414 -1.875,0 -3.406,1.539 -3.406,3.414 0,1.883 1.531,3.438 3.406,3.438 z"
       id="path25689"
       inkscape:connector-curvature="0" /><path
       style="fill:#ffffff"
       d="m 27.938,106.535 0,-68.805 c 0,-1.711 1.398,-3.102 3.102,-3.102 l 62.336,0 c 1.711,0 3.102,1.391 3.102,3.102 l 0,68.828 -68.54,-0.023 z M 61.852,90.887 c 12.188,0 22.078,-9.891 22.078,-22.078 0,-12.187 -9.891,-22.079 -22.078,-22.079 -12.195,0 -22.07,9.891 -22.07,22.078 0,12.187 9.874,22.079 22.07,22.079 z"
       id="path25691"
       inkscape:connector-curvature="0" /><path
       style="fill:#ffffff"
       d="m 79.727,63.16 c 0.469,1.609 0.711,3.305 0.711,5.078 0,10.234 -8.328,18.531 -18.562,18.531 -10.25,0 -18.555,-8.297 -18.555,-18.531 0,-1.906 0.297,-3.734 0.805,-5.453 l 0,0.031 c 1.188,1.281 2.875,2.094 4.773,2.094 1.648,0 3.125,-0.594 4.273,-1.617 l -0.023,0 c 1.156,1.023 2.664,1.617 4.297,1.617 1.695,0 3.25,-0.648 4.406,-1.75 l 0,0.023 c 1.148,1.079 2.687,1.727 4.398,1.727 1.758,0 3.375,-0.695 4.516,-1.828 l 0,0.023 c 1.148,1.133 2.734,1.805 4.5,1.805 1.703,0 3.289,-0.672 4.438,-1.773 l 0.023,0.023 z"
       id="path25693"
       inkscape:connector-curvature="0" /></g></svg>